<?xml version="1.0" encoding="utf-8"?>
<!-- Svg Vector Icons : http://www.onlinewebfonts.com/icon -->
<!DOCTYPE svg PUBLIC "-//W3C//DTD SVG 1.1//EN" "http://www.w3.org/Graphics/SVG/1.1/DTD/svg11.dtd">
<svg version="1.1" xmlns="http://www.w3.org/2000/svg" xmlns:xlink="http://www.w3.org/1999/xlink" x="0px" y="0px" viewBox="0 0 256 256" enable-background="new 0 0 256 256" xml:space="preserve">
<metadata> Svg Vector Icons : http://www.onlinewebfonts.com/icon </metadata>
<g><g><g><g><path fill="#52c234" d="M246,166.7V64.7c0-22.2-18.3-40.2-40.5-40.2H50.4c-22.2,0-40.4,18-40.4,40.2v101.9c0,13.6,6.8,25.6,17.1,32.8l-1.2,0c0,0,0,0,0,0c-8.6,0-15.7,7-15.7,15.6c0,8.6,7,15.7,15.6,15.7l203.7,0.6c0,0,0,0,0,0c8.6,0,15.7-7,15.7-15.6c0-8.6-7-15.7-15.6-15.7h-1.7C238.7,192.9,246,180.6,246,166.7z M225,166.7c0,10.9-8.6,19.5-19.4,19.5H50.4c-10.9,0-20.2-8.7-20.2-19.5V64.7c0-10.9,9.3-19.6,20.2-19.6h155.2c10.9,0,19.5,8.7,19.5,19.6L225,166.7L225,166.7z"/><path fill="#52c234" d="M97.8,135.3l-20-20l20.5-20.5c3-3,3-7.9,0-10.9c-3-3-7.9-3-11,0l-26,26c-1.4,1.4-2.3,3.4-2.3,5.5c0,2,0.8,4,2.3,5.5l25.4,25.4c1.5,1.5,3.5,2.3,5.5,2.3c2,0,3.9-0.7,5.5-2.3C100.8,143.2,100.8,138.3,97.8,135.3z"/><path fill="#52c234" d="M162,83.9c-3-3-7.9-3-11,0c-3,3-3,7.9,0,10.9l20.5,20.5l-20,20c-3,3-3,7.9,0,11c1.5,1.5,3.5,2.3,5.5,2.3s3.9-0.7,5.5-2.3l25.4-25.4c1.4-1.4,2.3-3.4,2.3-5.5c0-2-0.8-4-2.3-5.5L162,83.9z"/><path fill="#52c234" d="M144.4,61c-4-1.6-8.5,0.4-10,4.4l-36.7,93.7c-1.6,4,0.4,8.5,4.4,10c0.9,0.4,1.9,0.5,2.8,0.5c3.1,0,6-1.9,7.2-4.9l36.7-93.7C150.3,67.1,148.4,62.6,144.4,61z"/></g></g><g></g><g></g><g></g><g></g><g></g><g></g><g></g><g></g><g></g><g></g><g></g><g></g><g></g><g></g><g></g></g></g>
</svg>